<svg width="30" height="29" viewBox="0 0 30 29" fill="none" xmlns="http://www.w3.org/2000/svg">
<rect width="9.15446" height="2.28862" transform="matrix(-0.718931 0.695081 0.718931 0.695081 6.58105 21.0461)" fill="white"/>
<path fill-rule="evenodd" clip-rule="evenodd" d="M16.1246 24.1741C10.0376 24.1741 5.32763 19.2726 5.32763 13.5105C5.32763 7.74829 10.0376 2.84682 16.1246 2.84682C22.2115 2.84682 26.9215 7.74829 26.9215 13.5105C26.9215 19.2726 22.2115 24.1741 16.1246 24.1741ZM16.1246 26.84C8.76285 26.84 2.79502 20.8722 2.79502 13.5105C2.79502 6.14875 8.76285 0.180908 16.1246 0.180908C23.4863 0.180908 29.4541 6.14875 29.4541 13.5105C29.4541 20.8722 23.4863 26.84 16.1246 26.84Z" fill="white"/>
</svg>
